<?xml version="1.0" standalone="no"?>
<!DOCTYPE svg PUBLIC "-//W3C//DTD SVG 20010904//EN"
 "http://www.w3.org/TR/2001/REC-SVG-20010904/DTD/svg10.dtd">
<svg version="1.0" xmlns="http://www.w3.org/2000/svg"
 width="498.000000pt" height="498.000000pt" viewBox="0 0 498.000000 498.000000"
 preserveAspectRatio="xMidYMid meet">

<g transform="translate(0.000000,498.000000) scale(0.100000,-0.100000)"
fill="#ea580c" stroke="none">
<path d="M2465 4623 c-96 -25 -124 -146 -49 -212 62 -55 150 -37 189 39 19 37
19 64 -1 105 -24 52 -86 81 -139 68z"/>
<path d="M1387 4389 c-45 -27 -40 -99 8 -121 35 -16 92 11 101 48 14 54 -59
103 -109 73z"/>
<path d="M3500 4380 c-40 -40 -14 -104 45 -116 43 -8 78 22 78 66 0 62 -79 94
-123 50z"/>
<path d="M1626 4060 c-62 -19 -106 -83 -106 -155 0 -92 64 -155 156 -155 168
0 220 226 68 300 -43 21 -71 24 -118 10z"/>
<path d="M3244 4050 c-33 -13 -83 -77 -90 -116 -21 -112 89 -217 195 -186 75
23 121 83 121 159 0 46 -34 106 -76 133 -31 21 -111 26 -150 10z"/>
<path d="M2411 3908 c-72 -35 -111 -123 -90 -200 16 -62 84 -124 144 -134 158
-23 267 161 168 284 -59 72 -140 91 -222 50z"/>
<path d="M694 3610 c-40 -16 -64 -59 -64 -112 0 -43 4 -54 34 -84 30 -30 40
-34 86 -34 46 0 56 4 86 34 29 29 34 41 34 83 0 28 -7 58 -16 71 -31 45 -105
64 -160 42z"/>
<path d="M4210 3614 c-40 -14 -62 -30 -80 -60 -53 -84 7 -184 110 -184 34 0
48 6 75 33 76 76 43 191 -60 210 -17 3 -37 3 -45 1z"/>
<path d="M2040 3427 c-117 -33 -200 -128 -219 -249 -9 -54 3 -137 25 -181 26
-49 86 -107 138 -135 44 -23 64 -27 136 -27 100 0 154 21 219 86 64 64 86 120
85 214 0 90 -18 137 -80 205 -71 78 -203 116 -304 87z"/>
<path d="M2795 3431 c-63 -18 -104 -42 -148 -87 -147 -149 -101 -397 91 -491
150 -74 333 -3 405 156 29 64 29 178 0 242 -29 65 -86 124 -146 154 -57 27
-153 40 -202 26z"/>
<path d="M1325 3287 c-43 -20 -93 -80 -101 -122 -34 -185 190 -297 310 -155
69 82 53 197 -36 263 -35 26 -130 33 -173 14z"/>
<path d="M3527 3285 c-74 -26 -117 -88 -117 -169 0 -155 181 -234 294 -128
101 95 61 265 -72 302 -47 13 -58 12 -105 -5z"/>
<path d="M1652 2782 c-102 -37 -171 -113 -198 -220 -19 -77 -13 -126 27 -209
34 -70 71 -105 146 -140 141 -65 320 0 393 143 21 42 25 63 25 139 0 78 -4 97
-27 141 -68 130 -229 195 -366 146z"/>
<path d="M3190 2789 c-66 -10 -113 -32 -162 -78 -119 -109 -132 -305 -28 -424
121 -138 338 -138 459 -1 185 210 6 544 -269 503z"/>
<path d="M773 2630 c-87 -53 -102 -164 -33 -243 59 -67 160 -69 228 -4 77 74
57 203 -38 252 -41 21 -118 19 -157 -5z"/>
<path d="M4080 2638 c-47 -13 -98 -64 -111 -110 -28 -105 47 -198 159 -198
181 0 213 261 37 309 -22 6 -42 11 -45 10 -3 0 -21 -5 -40 -11z"/>
<path d="M311 2534 c-12 -15 -21 -34 -21 -44 0 -10 9 -29 21 -44 40 -50 119
-21 119 44 0 65 -79 94 -119 44z"/>
<path d="M4570 2540 c-43 -43 -11 -120 49 -120 32 0 71 39 71 70 0 10 -9 29
-21 44 -25 32 -70 35 -99 6z"/>
<path d="M2040 2147 c-139 -39 -224 -152 -224 -297 0 -125 61 -222 172 -277
74 -36 181 -39 254 -6 106 48 178 163 178 286 0 192 -198 345 -380 294z"/>
<path d="M2764 2136 c-23 -7 -63 -28 -88 -47 -186 -133 -158 -413 52 -516 74
-36 183 -39 253 -6 186 85 240 326 107 478 -57 65 -125 97 -213 101 -41 2 -87
-2 -111 -10z"/>
<path d="M1325 2026 c-37 -17 -80 -62 -94 -99 -23 -61 -10 -140 32 -186 28
-30 94 -61 132 -61 46 0 109 34 141 75 40 52 45 142 12 199 -42 72 -147 106
-223 72z"/>
<path d="M3541 2030 c-94 -22 -159 -130 -132 -221 42 -139 212 -175 308 -66
111 127 -10 324 -176 287z"/>
<path d="M671 1585 c-91 -77 -44 -218 73 -218 51 0 89 23 110 68 20 41 20 68
1 109 -32 67 -127 88 -184 41z"/>
<path d="M4144 1566 c-30 -30 -34 -40 -34 -85 0 -42 5 -56 29 -83 27 -31 34
-33 91 -33 57 0 64 2 91 33 24 27 29 41 29 83 0 46 -4 55 -36 85 -31 29 -42
34 -86 34 -44 0 -54 -4 -84 -34z"/>
<path d="M2427 1395 c-75 -26 -117 -87 -117 -167 0 -55 25 -104 73 -142 34
-27 47 -31 101 -31 76 0 133 32 161 91 46 98 4 206 -97 249 -45 18 -71 18
-121 0z"/>
<path d="M1617 1226 c-48 -17 -71 -38 -91 -81 -21 -45 -20 -98 3 -144 61 -119
234 -109 287 16 53 123 -73 255 -199 209z"/>
<path d="M3220 1207 c-106 -71 -97 -223 16 -277 35 -17 54 -21 89 -15 149 22
187 226 55 296 -49 26 -119 25 -160 -4z"/>
<path d="M1392 710 c-65 -27 -38 -130 35 -130 35 0 73 28 73 55 0 27 -22 63
-47 74 -28 13 -30 13 -61 1z"/>
<path d="M3525 708 c-48 -27 -58 -71 -25 -106 43 -46 123 -15 123 48 0 54 -51
85 -98 58z"/>
<path d="M2412 575 c-61 -52 -66 -129 -11 -184 83 -83 220 -14 205 104 -11 91
-125 138 -194 80z"/>
</g>
</svg>
